# xmcd
#
# Track frame offsets:
#	150
#	18343
#	37749
#	55014
#	73997
#	91572
#	109848
#
# Disc length: 1731 seconds
#
# Revision: 1
# Processed by: cddbd v1.5.2PL0 Copyright (c) Steve Scherf et al.
# Submitted via: audiograbber 1.83.01
#
DISCID=4c06c107
DTITLE=Repliikki - Syke EP
DYEAR=2011
DGENRE=Hip-Hop
TTITLE0=Multa Sulle
TTITLE1=Erilainen
TTITLE2=Syke
TTITLE3=Näissä Piireissä
TTITLE4=Ei Pysähdy
TTITLE5=Vain Hetken Näin
TTITLE6=24/7
EXTD=TR.
EXTT0=
EXTT1=
EXTT2=
EXTT3=
EXTT4=
EXTT5=
EXTT6=
PLAYORDER=
